<svg width="91" height="91" viewBox="0 0 91 91" fill="none" xmlns="http://www.w3.org/2000/svg">
<path d="M45.5 51.1747C47.2251 51.1753 48.7803 50.1361 49.4413 48.542C50.1017 46.9485 49.7373 45.114 48.517 43.8937C46.8286 42.2841 44.1737 42.2841 42.4852 43.8937C41.2666 45.1129 40.9012 46.9474 41.5615 48.5409C42.2208 50.135 43.7754 51.1742 45.5 51.1747ZM44.4947 45.9038C45.0501 45.3489 45.9499 45.3489 46.5053 45.9038C47.0602 46.4592 47.0602 47.3595 46.5053 47.9144C45.9432 48.4526 45.0568 48.4526 44.4947 47.9144C43.9398 47.3595 43.9398 46.4592 44.4947 45.9038Z" fill="#69B99D"/>
<path d="M62.5625 31.2685C62.9396 31.2685 63.3012 31.1186 63.5678 30.852L76.3647 18.0551C76.9035 17.4974 76.8957 16.6104 76.3475 16.0617C75.7987 15.5135 74.9123 15.5057 74.3541 16.0444L61.5572 28.8413C61.1512 29.2485 61.029 29.86 61.2489 30.391C61.4689 30.9219 61.9876 31.2685 62.5625 31.2685Z" fill="#69B99D"/>
<path d="M55.4531 38.3779C55.8302 38.3779 56.1918 38.2279 56.4584 37.9613L59.3022 35.1176C59.8409 34.5599 59.8331 33.6729 59.2849 33.1242C58.7362 32.576 57.8497 32.5682 57.2915 33.1069L54.4478 35.9507C54.0418 36.3578 53.9196 36.9693 54.1395 37.5003C54.3595 38.0313 54.8783 38.3779 55.4531 38.3779Z" fill="#69B99D"/>
<path d="M18.4844 71.0811C15.3435 71.0811 12.7969 73.6277 12.7969 76.7686C12.7969 79.91 15.3435 82.4561 18.4844 82.4561C21.6253 82.4561 24.1719 79.91 24.1719 76.7686C24.1719 73.6277 21.6253 71.0811 18.4844 71.0811V71.0811ZM18.4844 79.6123C16.9136 79.6123 15.6406 78.3398 15.6406 76.7686C15.6406 75.1984 16.9136 73.9248 18.4844 73.9248C20.0551 73.9248 21.3281 75.1984 21.3281 76.7686C21.3281 78.3398 20.0551 79.6123 18.4844 79.6123Z" fill="#69B99D"/>
<path d="M72.5684 82.4561C75.7093 82.4561 78.2559 79.91 78.2559 76.7686C78.2559 73.6277 75.7093 71.0811 72.5684 71.0811C69.4269 71.0811 66.8809 73.6277 66.8809 76.7686C66.8809 79.91 69.4269 82.4561 72.5684 82.4561V82.4561ZM72.5684 73.9248C74.1386 73.9248 75.4121 75.1984 75.4121 76.7686C75.4121 78.3398 74.1386 79.6123 72.5684 79.6123C70.9982 79.6123 69.7246 78.3398 69.7246 76.7686C69.7246 75.1984 70.9982 73.9248 72.5684 73.9248Z" fill="#69B99D"/>
<path d="M86.7344 52.5967C83.5935 52.5967 81.0469 50.0506 81.0469 46.9092C81.0469 46.1238 80.4104 45.4873 79.625 45.4873C78.8396 45.4873 78.2031 46.1238 78.2031 46.9092C78.2031 50.0506 75.6565 52.5967 72.5156 52.5967C71.7303 52.5967 71.0938 53.2332 71.0938 54.0186C71.0938 54.8039 71.7303 55.4404 72.5156 55.4404C75.6565 55.4404 78.2031 57.987 78.2031 61.1279C78.2031 61.9133 78.8396 62.5498 79.625 62.5498C80.4104 62.5498 81.0469 61.9133 81.0469 61.1279C81.0469 57.987 83.5935 55.4404 86.7344 55.4404C87.5197 55.4404 88.1562 54.8039 88.1562 54.0186C88.1562 53.2332 87.5197 52.5967 86.7344 52.5967ZM79.625 56.4224C78.9918 55.4688 78.1748 54.6517 77.2223 54.0186C78.1748 53.3859 78.9918 52.5689 79.625 51.6158C80.2582 52.5689 81.0752 53.3859 82.0277 54.0186C81.0752 54.6517 80.2582 55.4688 79.625 56.4224Z" fill="#69B99D"/>
<path d="M4.26562 38.3779C7.40652 38.3779 9.95313 40.9245 9.95313 44.0654C9.95313 44.8508 10.5896 45.4873 11.375 45.4873C12.1604 45.4873 12.7969 44.8508 12.7969 44.0654C12.7969 40.9245 15.3435 38.3779 18.4844 38.3779C19.2697 38.3779 19.9062 37.7414 19.9062 36.9561C19.9062 36.1707 19.2697 35.5342 18.4844 35.5342C15.3435 35.5342 12.7969 32.9881 12.7969 29.8467C12.7969 29.0613 12.1604 28.4248 11.375 28.4248C10.5896 28.4248 9.95313 29.0613 9.95313 29.8467C9.95313 32.9881 7.40652 35.5342 4.26562 35.5342C3.48026 35.5342 2.84375 36.1707 2.84375 36.9561C2.84375 37.7414 3.48026 38.3779 4.26562 38.3779V38.3779ZM11.375 34.5533C12.0082 35.5064 12.8252 36.3234 13.7777 36.9561C12.8252 37.5892 12.0082 38.4063 11.375 39.3599C10.7418 38.4063 9.9248 37.5892 8.97225 36.9561C9.9248 36.3234 10.7418 35.5064 11.375 34.5533V34.5533Z" fill="#69B99D"/>
<path d="M37.2531 51.7268L22.75 66.2271C21.3959 65.6739 19.9474 65.3912 18.4844 65.3935C12.202 65.3935 7.10938 70.4866 7.10938 76.7684C7.10938 83.0508 12.202 88.1434 18.4844 88.1434C24.7667 88.1434 29.8594 83.0508 29.8594 76.7684C29.8583 76.0886 29.7938 75.4099 29.6694 74.7412L45.5272 59.2427L61.3839 74.7412C61.2584 75.4099 61.1951 76.0886 61.1934 76.7684C61.1934 83.0508 66.286 88.1434 72.5684 88.1434C78.8502 88.1434 83.9434 83.0508 83.9434 76.7684C83.9434 70.4866 78.8502 65.3935 72.5684 65.3935C71.1054 65.3907 69.6563 65.6739 68.3028 66.2271L53.8169 51.744L80.7353 20.7821C87.0004 12.9507 80.8703 3.55799 80.808 3.46413C80.577 3.11755 80.2054 2.88982 79.7916 2.8415C79.3762 2.79374 78.9613 2.92815 78.6536 3.21086L45.5394 33.9706L12.4214 3.21086C12.1143 2.92815 11.6994 2.79374 11.2839 2.8415C10.8701 2.88982 10.4985 3.11755 10.2675 3.46413C10.2042 3.55799 4.07678 12.9507 10.378 20.8266L37.2531 51.7268ZM27.1162 73.261C26.7524 73.617 26.6068 74.1402 26.7335 74.6329C27.6477 78.1659 26.213 81.8883 23.1655 83.8945C20.1173 85.9012 16.1316 85.7468 13.2473 83.5112C10.3636 81.2757 9.22053 77.4533 10.4041 74.0019C11.5883 70.55 14.8353 68.2333 18.4844 68.2372C19.8479 68.2361 21.1915 68.5643 22.4001 69.1959C22.9505 69.4808 23.6215 69.3764 24.0597 68.9387L39.1154 53.884C39.9575 54.6772 40.93 55.3198 41.9909 55.7819L43.4922 57.2504L27.1162 73.261ZM68.6543 69.1959C69.8618 68.5643 71.2048 68.2361 72.5684 68.2372C76.2458 68.215 79.53 70.5383 80.7325 74.0141C81.935 77.4905 80.7886 81.3457 77.8821 83.6007C74.9761 85.8551 70.9571 86.0079 67.8884 83.9795C64.8203 81.9511 63.3851 78.1931 64.321 74.6356C64.4487 74.1435 64.3032 73.6198 63.9388 73.2638L46.6953 56.4062C48.6537 56.1057 50.4721 55.2126 51.9068 53.8468L66.9936 68.9331C67.4302 69.3736 68.1023 69.4802 68.6543 69.1959V69.1959ZM79.2523 6.54004C80.4498 9.08664 82.181 14.4226 78.553 18.9609L50.1822 51.5913C47.6062 54.1879 43.4138 54.2045 40.8178 51.629C38.2218 49.053 38.2051 44.8601 40.7812 42.2647L79.2523 6.54004ZM11.8188 6.52782L43.4499 35.9057L38.8072 40.2163C37.2409 41.7348 36.2378 43.7404 35.9634 45.9038L12.5636 19.0048C8.87061 14.3898 10.6085 9.07165 11.8188 6.52782Z" fill="#69B99D"/>
</svg>
