<svg width="27" height="27" viewBox="0 0 27 27" fill="none" xmlns="http://www.w3.org/2000/svg">
<path fill-rule="evenodd" clip-rule="evenodd" d="M13.5 2.25C11.1131 2.25 8.82387 3.19821 7.13604 4.88604C5.44821 6.57387 4.5 8.86305 4.5 11.25C4.5 14.7353 6.7677 18.1173 9.2542 20.7419C10.4744 22.0299 11.6985 23.0844 12.6188 23.8172C12.9613 24.0899 13.2604 24.3171 13.5 24.4942C13.7396 24.3171 14.0387 24.0899 14.3812 23.8172C15.3015 23.0844 16.5256 22.0299 17.7458 20.7419C20.2323 18.1173 22.5 14.7353 22.5 11.25C22.5 8.86305 21.5518 6.57387 19.864 4.88604C18.1761 3.19821 15.8869 2.25 13.5 2.25ZM13.5 25.875C12.876 26.8111 12.8757 26.8109 12.8754 26.8107L12.8721 26.8085L12.8646 26.8035L12.8389 26.786C12.817 26.7712 12.7857 26.7498 12.7458 26.7221C12.6658 26.6668 12.551 26.5861 12.4063 26.4816C12.1169 26.2726 11.7072 25.9675 11.2172 25.5773C10.239 24.7984 8.93181 23.6732 7.6208 22.2893C5.0448 19.5702 2.25 15.6397 2.25 11.25C2.25 8.26631 3.43526 5.40483 5.54505 3.29505C7.65483 1.18526 10.5163 0 13.5 0C16.4837 0 19.3452 1.18526 21.455 3.29505C23.5647 5.40483 24.75 8.26631 24.75 11.25C24.75 15.6397 21.9552 19.5702 19.3792 22.2893C18.0682 23.6732 16.761 24.7984 15.7828 25.5773C15.2928 25.9675 14.8831 26.2726 14.5937 26.4816C14.449 26.5861 14.3342 26.6668 14.2542 26.7221C14.2143 26.7498 14.183 26.7712 14.1611 26.786L14.1354 26.8035L14.1279 26.8085L14.1255 26.8101C14.1252 26.8103 14.124 26.8111 13.5 25.875ZM13.5 25.875L14.124 26.8111C13.7462 27.063 13.2532 27.0626 12.8754 26.8107L13.5 25.875Z" fill="#69B99D"/>
<path fill-rule="evenodd" clip-rule="evenodd" d="M19.125 11.25C19.125 14.3566 16.6066 16.875 13.5 16.875C10.3934 16.875 7.875 14.3566 7.875 11.25C7.875 8.1434 10.3934 5.625 13.5 5.625C16.6066 5.625 19.125 8.1434 19.125 11.25ZM16.875 11.25C16.875 13.114 15.364 14.625 13.5 14.625C11.636 14.625 10.125 13.114 10.125 11.25C10.125 9.38604 11.636 7.875 13.5 7.875C15.364 7.875 16.875 9.38604 16.875 11.25Z" fill="#69B99D"/>
</svg>
